  0
SECTION
  2
BLOCKS
  0
ENDSEC
  0
SECTION
  2
ENTITIES
  0
LINE
  8
0
 10
33.625
 20
128.875
 11
4
 21
128.875
  0
LINE
  8
0
 10
4
 20
128.875
 11
4
 21
99.25
  0
LINE
  8
0
 10
4
 20
99.25
 11
33.625
 21
99.25
  0
LINE
  8
0
 10
33.625
 20
99.25
 11
33.625
 21
128.875
  0
LINE
  8
0
 10
6.53647
 20
124.448
 11
6.11832
 21
124.661
  0
LINE
  8
0
 10
6.11832
 20
124.661
 11
5.78647
 21
124.993
  0
LINE
  8
0
 10
5.78647
 20
124.993
 11
5.57341
 21
125.411
  0
LINE
  8
0
 10
5.57341
 20
125.411
 11
5.5
 21
125.875
  0
LINE
  8
0
 10
5.5
 20
125.875
 11
5.57341
 21
126.339
  0
LINE
  8
0
 10
5.57341
 20
126.339
 11
5.78647
 21
126.757
  0
LINE
  8
0
 10
5.78647
 20
126.757
 11
6.11832
 21
127.089
  0
LINE
  8
0
 10
6.11832
 20
127.089
 11
6.53647
 21
127.302
  0
LINE
  8
0
 10
6.53647
 20
127.302
 11
7
 21
127.375
  0
LINE
  8
0
 10
7
 20
127.375
 11
7.46352
 21
127.302
  0
LINE
  8
0
 10
7.46352
 20
127.302
 11
7.88167
 21
127.089
  0
LINE
  8
0
 10
7.88167
 20
127.089
 11
8.21352
 21
126.757
  0
LINE
  8
0
 10
8.21352
 20
126.757
 11
8.42657
 21
126.339
  0
LINE
  8
0
 10
8.42657
 20
126.339
 11
8.5
 21
125.875
  0
LINE
  8
0
 10
8.5
 20
125.875
 11
8.42657
 21
125.411
  0
LINE
  8
0
 10
8.42657
 20
125.411
 11
8.21352
 21
124.993
  0
LINE
  8
0
 10
8.21352
 20
124.993
 11
7.88167
 21
124.661
  0
LINE
  8
0
 10
7.88167
 20
124.661
 11
7.46352
 21
124.448
  0
LINE
  8
0
 10
7.46352
 20
124.448
 11
7
 21
124.375
  0
LINE
  8
0
 10
7
 20
124.375
 11
6.53647
 21
124.448
  0
LINE
  8
0
 10
30.1615
 20
124.448
 11
29.7433
 21
124.661
  0
LINE
  8
0
 10
29.7433
 20
124.661
 11
29.4115
 21
124.993
  0
LINE
  8
0
 10
29.4115
 20
124.993
 11
29.1984
 21
125.411
  0
LINE
  8
0
 10
29.1984
 20
125.411
 11
29.125
 21
125.875
  0
LINE
  8
0
 10
29.125
 20
125.875
 11
29.1984
 21
126.339
  0
LINE
  8
0
 10
29.1984
 20
126.339
 11
29.4115
 21
126.757
  0
LINE
  8
0
 10
29.4115
 20
126.757
 11
29.7433
 21
127.089
  0
LINE
  8
0
 10
29.7433
 20
127.089
 11
30.1615
 21
127.302
  0
LINE
  8
0
 10
30.1615
 20
127.302
 11
30.625
 21
127.375
  0
LINE
  8
0
 10
30.625
 20
127.375
 11
31.0885
 21
127.302
  0
LINE
  8
0
 10
31.0885
 20
127.302
 11
31.5067
 21
127.089
  0
LINE
  8
0
 10
31.5067
 20
127.089
 11
31.8385
 21
126.757
  0
LINE
  8
0
 10
31.8385
 20
126.757
 11
32.0516
 21
126.339
  0
LINE
  8
0
 10
32.0516
 20
126.339
 11
32.125
 21
125.875
  0
LINE
  8
0
 10
32.125
 20
125.875
 11
32.0516
 21
125.411
  0
LINE
  8
0
 10
32.0516
 20
125.411
 11
31.8385
 21
124.993
  0
LINE
  8
0
 10
31.8385
 20
124.993
 11
31.5067
 21
124.661
  0
LINE
  8
0
 10
31.5067
 20
124.661
 11
31.0885
 21
124.448
  0
LINE
  8
0
 10
31.0885
 20
124.448
 11
30.625
 21
124.375
  0
LINE
  8
0
 10
30.625
 20
124.375
 11
30.1615
 21
124.448
  0
LINE
  8
0
 10
6.53647
 20
100.823
 11
6.11832
 21
101.036
  0
LINE
  8
0
 10
6.11832
 20
101.036
 11
5.78647
 21
101.368
  0
LINE
  8
0
 10
5.78647
 20
101.368
 11
5.57341
 21
101.786
  0
LINE
  8
0
 10
5.57341
 20
101.786
 11
5.5
 21
102.25
  0
LINE
  8
0
 10
5.5
 20
102.25
 11
5.57341
 21
102.714
  0
LINE
  8
0
 10
5.57341
 20
102.714
 11
5.78647
 21
103.132
  0
LINE
  8
0
 10
5.78647
 20
103.132
 11
6.11832
 21
103.464
  0
LINE
  8
0
 10
6.11832
 20
103.464
 11
6.53647
 21
103.677
  0
LINE
  8
0
 10
6.53647
 20
103.677
 11
7
 21
103.75
  0
LINE
  8
0
 10
7
 20
103.75
 11
7.46352
 21
103.677
  0
LINE
  8
0
 10
7.46352
 20
103.677
 11
7.88167
 21
103.464
  0
LINE
  8
0
 10
7.88167
 20
103.464
 11
8.21352
 21
103.132
  0
LINE
  8
0
 10
8.21352
 20
103.132
 11
8.42657
 21
102.714
  0
LINE
  8
0
 10
8.42657
 20
102.714
 11
8.5
 21
102.25
  0
LINE
  8
0
 10
8.5
 20
102.25
 11
8.42657
 21
101.786
  0
LINE
  8
0
 10
8.42657
 20
101.786
 11
8.21352
 21
101.368
  0
LINE
  8
0
 10
8.21352
 20
101.368
 11
7.88167
 21
101.036
  0
LINE
  8
0
 10
7.88167
 20
101.036
 11
7.46352
 21
100.823
  0
LINE
  8
0
 10
7.46352
 20
100.823
 11
7
 21
100.75
  0
LINE
  8
0
 10
7
 20
100.75
 11
6.53647
 21
100.823
  0
LINE
  8
0
 10
30.1615
 20
100.823
 11
29.7433
 21
101.036
  0
LINE
  8
0
 10
29.7433
 20
101.036
 11
29.4115
 21
101.368
  0
LINE
  8
0
 10
29.4115
 20
101.368
 11
29.1984
 21
101.786
  0
LINE
  8
0
 10
29.1984
 20
101.786
 11
29.125
 21
102.25
  0
LINE
  8
0
 10
29.125
 20
102.25
 11
29.1984
 21
102.714
  0
LINE
  8
0
 10
29.1984
 20
102.714
 11
29.4115
 21
103.132
  0
LINE
  8
0
 10
29.4115
 20
103.132
 11
29.7433
 21
103.464
  0
LINE
  8
0
 10
29.7433
 20
103.464
 11
30.1615
 21
103.677
  0
LINE
  8
0
 10
30.1615
 20
103.677
 11
30.625
 21
103.75
  0
LINE
  8
0
 10
30.625
 20
103.75
 11
31.0885
 21
103.677
  0
LINE
  8
0
 10
31.0885
 20
103.677
 11
31.5067
 21
103.464
  0
LINE
  8
0
 10
31.5067
 20
103.464
 11
31.8385
 21
103.132
  0
LINE
  8
0
 10
31.8385
 20
103.132
 11
32.0516
 21
102.714
  0
LINE
  8
0
 10
32.0516
 20
102.714
 11
32.125
 21
102.25
  0
LINE
  8
0
 10
32.125
 20
102.25
 11
32.0516
 21
101.786
  0
LINE
  8
0
 10
32.0516
 20
101.786
 11
31.8385
 21
101.368
  0
LINE
  8
0
 10
31.8385
 20
101.368
 11
31.5067
 21
101.036
  0
LINE
  8
0
 10
31.5067
 20
101.036
 11
31.0885
 21
100.823
  0
LINE
  8
0
 10
31.0885
 20
100.823
 11
30.625
 21
100.75
  0
LINE
  8
0
 10
30.625
 20
100.75
 11
30.1615
 21
100.823
  0
LINE
  8
0
 10
37.625
 20
85.25
 11
0
 21
85.25
  0
LINE
  8
0
 10
0
 20
85.25
 11
0
 21
47.625
  0
LINE
  8
0
 10
0
 20
47.625
 11
37.625
 21
47.625
  0
LINE
  8
0
 10
37.625
 20
47.625
 11
37.625
 21
85.25
  0
LINE
  8
0
 10
6.53647
 20
76.8234
 11
6.11832
 21
77.0365
  0
LINE
  8
0
 10
6.11832
 20
77.0365
 11
5.78647
 21
77.3683
  0
LINE
  8
0
 10
5.78647
 20
77.3683
 11
5.57341
 21
77.7865
  0
LINE
  8
0
 10
5.57341
 20
77.7865
 11
5.5
 21
78.25
  0
LINE
  8
0
 10
5.5
 20
78.25
 11
5.57341
 21
78.7135
  0
LINE
  8
0
 10
5.57341
 20
78.7135
 11
5.78647
 21
79.1317
  0
LINE
  8
0
 10
5.78647
 20
79.1317
 11
6.11832
 21
79.4635
  0
LINE
  8
0
 10
6.11832
 20
79.4635
 11
6.53647
 21
79.6766
  0
LINE
  8
0
 10
6.53647
 20
79.6766
 11
7
 21
79.75
  0
LINE
  8
0
 10
7
 20
79.75
 11
7.46352
 21
79.6766
  0
LINE
  8
0
 10
7.46352
 20
79.6766
 11
7.88167
 21
79.4635
  0
LINE
  8
0
 10
7.88167
 20
79.4635
 11
8.21352
 21
79.1317
  0
LINE
  8
0
 10
8.21352
 20
79.1317
 11
8.42657
 21
78.7135
  0
LINE
  8
0
 10
8.42657
 20
78.7135
 11
8.5
 21
78.25
  0
LINE
  8
0
 10
8.5
 20
78.25
 11
8.42657
 21
77.7865
  0
LINE
  8
0
 10
8.42657
 20
77.7865
 11
8.21352
 21
77.3683
  0
LINE
  8
0
 10
8.21352
 20
77.3683
 11
7.88167
 21
77.0365
  0
LINE
  8
0
 10
7.88167
 20
77.0365
 11
7.46352
 21
76.8234
  0
LINE
  8
0
 10
7.46352
 20
76.8234
 11
7
 21
76.75
  0
LINE
  8
0
 10
7
 20
76.75
 11
6.53647
 21
76.8234
  0
LINE
  8
0
 10
30.1615
 20
76.8234
 11
29.7433
 21
77.0365
  0
LINE
  8
0
 10
29.7433
 20
77.0365
 11
29.4115
 21
77.3683
  0
LINE
  8
0
 10
29.4115
 20
77.3683
 11
29.1984
 21
77.7865
  0
LINE
  8
0
 10
29.1984
 20
77.7865
 11
29.125
 21
78.25
  0
LINE
  8
0
 10
29.125
 20
78.25
 11
29.1984
 21
78.7135
  0
LINE
  8
0
 10
29.1984
 20
78.7135
 11
29.4115
 21
79.1317
  0
LINE
  8
0
 10
29.4115
 20
79.1317
 11
29.7433
 21
79.4635
  0
LINE
  8
0
 10
29.7433
 20
79.4635
 11
30.1615
 21
79.6766
  0
LINE
  8
0
 10
30.1615
 20
79.6766
 11
30.625
 21
79.75
  0
LINE
  8
0
 10
30.625
 20
79.75
 11
31.0885
 21
79.6766
  0
LINE
  8
0
 10
31.0885
 20
79.6766
 11
31.5067
 21
79.4635
  0
LINE
  8
0
 10
31.5067
 20
79.4635
 11
31.8385
 21
79.1317
  0
LINE
  8
0
 10
31.8385
 20
79.1317
 11
32.0516
 21
78.7135
  0
LINE
  8
0
 10
32.0516
 20
78.7135
 11
32.125
 21
78.25
  0
LINE
  8
0
 10
32.125
 20
78.25
 11
32.0516
 21
77.7865
  0
LINE
  8
0
 10
32.0516
 20
77.7865
 11
31.8385
 21
77.3683
  0
LINE
  8
0
 10
31.8385
 20
77.3683
 11
31.5067
 21
77.0365
  0
LINE
  8
0
 10
31.5067
 20
77.0365
 11
31.0885
 21
76.8234
  0
LINE
  8
0
 10
31.0885
 20
76.8234
 11
30.625
 21
76.75
  0
LINE
  8
0
 10
30.625
 20
76.75
 11
30.1615
 21
76.8234
  0
LINE
  8
0
 10
30.1615
 20
53.1984
 11
29.7433
 21
53.4115
  0
LINE
  8
0
 10
29.7433
 20
53.4115
 11
29.4115
 21
53.7433
  0
LINE
  8
0
 10
29.4115
 20
53.7433
 11
29.1984
 21
54.1615
  0
LINE
  8
0
 10
29.1984
 20
54.1615
 11
29.125
 21
54.625
  0
LINE
  8
0
 10
29.125
 20
54.625
 11
29.1984
 21
55.0885
  0
LINE
  8
0
 10
29.1984
 20
55.0885
 11
29.4115
 21
55.5067
  0
LINE
  8
0
 10
29.4115
 20
55.5067
 11
29.7433
 21
55.8385
  0
LINE
  8
0
 10
29.7433
 20
55.8385
 11
30.1615
 21
56.0516
  0
LINE
  8
0
 10
30.1615
 20
56.0516
 11
30.625
 21
56.125
  0
LINE
  8
0
 10
30.625
 20
56.125
 11
31.0885
 21
56.0516
  0
LINE
  8
0
 10
31.0885
 20
56.0516
 11
31.5067
 21
55.8385
  0
LINE
  8
0
 10
31.5067
 20
55.8385
 11
31.8385
 21
55.5067
  0
LINE
  8
0
 10
31.8385
 20
55.5067
 11
32.0516
 21
55.0885
  0
LINE
  8
0
 10
32.0516
 20
55.0885
 11
32.125
 21
54.625
  0
LINE
  8
0
 10
32.125
 20
54.625
 11
32.0516
 21
54.1615
  0
LINE
  8
0
 10
32.0516
 20
54.1615
 11
31.8385
 21
53.7433
  0
LINE
  8
0
 10
31.8385
 20
53.7433
 11
31.5067
 21
53.4115
  0
LINE
  8
0
 10
31.5067
 20
53.4115
 11
31.0885
 21
53.1984
  0
LINE
  8
0
 10
31.0885
 20
53.1984
 11
30.625
 21
53.125
  0
LINE
  8
0
 10
30.625
 20
53.125
 11
30.1615
 21
53.1984
  0
LINE
  8
0
 10
6.53647
 20
53.1984
 11
6.11832
 21
53.4115
  0
LINE
  8
0
 10
6.11832
 20
53.4115
 11
5.78647
 21
53.7433
  0
LINE
  8
0
 10
5.78647
 20
53.7433
 11
5.57341
 21
54.1615
  0
LINE
  8
0
 10
5.57341
 20
54.1615
 11
5.5
 21
54.625
  0
LINE
  8
0
 10
5.5
 20
54.625
 11
5.57341
 21
55.0885
  0
LINE
  8
0
 10
5.57341
 20
55.0885
 11
5.78647
 21
55.5067
  0
LINE
  8
0
 10
5.78647
 20
55.5067
 11
6.11832
 21
55.8385
  0
LINE
  8
0
 10
6.11832
 20
55.8385
 11
6.53647
 21
56.0516
  0
LINE
  8
0
 10
6.53647
 20
56.0516
 11
7
 21
56.125
  0
LINE
  8
0
 10
7
 20
56.125
 11
7.46352
 21
56.0516
  0
LINE
  8
0
 10
7.46352
 20
56.0516
 11
7.88167
 21
55.8385
  0
LINE
  8
0
 10
7.88167
 20
55.8385
 11
8.21352
 21
55.5067
  0
LINE
  8
0
 10
8.21352
 20
55.5067
 11
8.42657
 21
55.0885
  0
LINE
  8
0
 10
8.42657
 20
55.0885
 11
8.5
 21
54.625
  0
LINE
  8
0
 10
8.5
 20
54.625
 11
8.42657
 21
54.1615
  0
LINE
  8
0
 10
8.42657
 20
54.1615
 11
8.21352
 21
53.7433
  0
LINE
  8
0
 10
8.21352
 20
53.7433
 11
7.88167
 21
53.4115
  0
LINE
  8
0
 10
7.88167
 20
53.4115
 11
7.46352
 21
53.1984
  0
LINE
  8
0
 10
7.46352
 20
53.1984
 11
7
 21
53.125
  0
LINE
  8
0
 10
7
 20
53.125
 11
6.53647
 21
53.1984
  0
LINE
  8
0
 10
15.05
 20
4
 11
22.575
 21
4
  0
LINE
  8
0
 10
22.575
 20
4
 11
22.575
 21
0
  0
LINE
  8
0
 10
22.575
 20
0
 11
30.1
 21
0
  0
LINE
  8
0
 10
30.1
 20
0
 11
30.1
 21
4
  0
LINE
  8
0
 10
30.1
 20
4
 11
33.625
 21
4
  0
LINE
  8
0
 10
33.625
 20
4
 11
33.625
 21
7.52499
  0
LINE
  8
0
 10
33.625
 20
7.52499
 11
37.625
 21
7.52499
  0
LINE
  8
0
 10
37.625
 20
7.52499
 11
37.625
 21
15.05
  0
LINE
  8
0
 10
37.625
 20
15.05
 11
33.625
 21
15.05
  0
LINE
  8
0
 10
33.625
 20
15.05
 11
33.625
 21
22.575
  0
LINE
  8
0
 10
33.625
 20
22.575
 11
37.625
 21
22.575
  0
LINE
  8
0
 10
37.625
 20
22.575
 11
37.625
 21
30.1
  0
LINE
  8
0
 10
37.625
 20
30.1
 11
33.625
 21
30.1
  0
LINE
  8
0
 10
33.625
 20
30.1
 11
33.625
 21
33.625
  0
LINE
  8
0
 10
33.625
 20
33.625
 11
30.1
 21
33.625
  0
LINE
  8
0
 10
30.1
 20
33.625
 11
30.1
 21
37.625
  0
LINE
  8
0
 10
30.1
 20
37.625
 11
22.575
 21
37.625
  0
LINE
  8
0
 10
22.575
 20
37.625
 11
22.575
 21
33.625
  0
LINE
  8
0
 10
22.575
 20
33.625
 11
15.05
 21
33.625
  0
LINE
  8
0
 10
15.05
 20
33.625
 11
15.05
 21
37.625
  0
LINE
  8
0
 10
15.05
 20
37.625
 11
7.52499
 21
37.625
  0
LINE
  8
0
 10
7.52499
 20
37.625
 11
7.52499
 21
33.625
  0
LINE
  8
0
 10
7.52499
 20
33.625
 11
4
 21
33.625
  0
LINE
  8
0
 10
4
 20
33.625
 11
4
 21
30.1
  0
LINE
  8
0
 10
4
 20
30.1
 11
0
 21
30.1
  0
LINE
  8
0
 10
0
 20
30.1
 11
0
 21
22.575
  0
LINE
  8
0
 10
0
 20
22.575
 11
4
 21
22.575
  0
LINE
  8
0
 10
4
 20
22.575
 11
4
 21
15.05
  0
LINE
  8
0
 10
4
 20
15.05
 11
0
 21
15.05
  0
LINE
  8
0
 10
0
 20
15.05
 11
0
 21
7.52499
  0
LINE
  8
0
 10
0
 20
7.52499
 11
4
 21
7.52499
  0
LINE
  8
0
 10
4
 20
7.52499
 11
4
 21
4
  0
LINE
  8
0
 10
4
 20
4
 11
7.52499
 21
4
  0
LINE
  8
0
 10
7.52499
 20
4
 11
7.52499
 21
0
  0
LINE
  8
0
 10
7.52499
 20
0
 11
15.05
 21
0
  0
LINE
  8
0
 10
15.05
 20
0
 11
15.05
 21
4
  0
LINE
  8
0
 10
6.53647
 20
29.1984
 11
6.11832
 21
29.4115
  0
LINE
  8
0
 10
6.11832
 20
29.4115
 11
5.78647
 21
29.7433
  0
LINE
  8
0
 10
5.78647
 20
29.7433
 11
5.57341
 21
30.1615
  0
LINE
  8
0
 10
5.57341
 20
30.1615
 11
5.5
 21
30.625
  0
LINE
  8
0
 10
5.5
 20
30.625
 11
5.57341
 21
31.0885
  0
LINE
  8
0
 10
5.57341
 20
31.0885
 11
5.78647
 21
31.5067
  0
LINE
  8
0
 10
5.78647
 20
31.5067
 11
6.11832
 21
31.8385
  0
LINE
  8
0
 10
6.11832
 20
31.8385
 11
6.53647
 21
32.0516
  0
LINE
  8
0
 10
6.53647
 20
32.0516
 11
7
 21
32.125
  0
LINE
  8
0
 10
7
 20
32.125
 11
7.46352
 21
32.0516
  0
LINE
  8
0
 10
7.46352
 20
32.0516
 11
7.88167
 21
31.8385
  0
LINE
  8
0
 10
7.88167
 20
31.8385
 11
8.21352
 21
31.5067
  0
LINE
  8
0
 10
8.21352
 20
31.5067
 11
8.42657
 21
31.0885
  0
LINE
  8
0
 10
8.42657
 20
31.0885
 11
8.5
 21
30.625
  0
LINE
  8
0
 10
8.5
 20
30.625
 11
8.42657
 21
30.1615
  0
LINE
  8
0
 10
8.42657
 20
30.1615
 11
8.21352
 21
29.7433
  0
LINE
  8
0
 10
8.21352
 20
29.7433
 11
7.88167
 21
29.4115
  0
LINE
  8
0
 10
7.88167
 20
29.4115
 11
7.46352
 21
29.1984
  0
LINE
  8
0
 10
7.46352
 20
29.1984
 11
7
 21
29.125
  0
LINE
  8
0
 10
7
 20
29.125
 11
6.53647
 21
29.1984
  0
LINE
  8
0
 10
30.1615
 20
29.1984
 11
29.7433
 21
29.4115
  0
LINE
  8
0
 10
29.7433
 20
29.4115
 11
29.4115
 21
29.7433
  0
LINE
  8
0
 10
29.4115
 20
29.7433
 11
29.1984
 21
30.1615
  0
LINE
  8
0
 10
29.1984
 20
30.1615
 11
29.125
 21
30.625
  0
LINE
  8
0
 10
29.125
 20
30.625
 11
29.1984
 21
31.0885
  0
LINE
  8
0
 10
29.1984
 20
31.0885
 11
29.4115
 21
31.5067
  0
LINE
  8
0
 10
29.4115
 20
31.5067
 11
29.7433
 21
31.8385
  0
LINE
  8
0
 10
29.7433
 20
31.8385
 11
30.1615
 21
32.0516
  0
LINE
  8
0
 10
30.1615
 20
32.0516
 11
30.625
 21
32.125
  0
LINE
  8
0
 10
30.625
 20
32.125
 11
31.0885
 21
32.0516
  0
LINE
  8
0
 10
31.0885
 20
32.0516
 11
31.5067
 21
31.8385
  0
LINE
  8
0
 10
31.5067
 20
31.8385
 11
31.8385
 21
31.5067
  0
LINE
  8
0
 10
31.8385
 20
31.5067
 11
32.0516
 21
31.0885
  0
LINE
  8
0
 10
32.0516
 20
31.0885
 11
32.125
 21
30.625
  0
LINE
  8
0
 10
32.125
 20
30.625
 11
32.0516
 21
30.1615
  0
LINE
  8
0
 10
32.0516
 20
30.1615
 11
31.8385
 21
29.7433
  0
LINE
  8
0
 10
31.8385
 20
29.7433
 11
31.5067
 21
29.4115
  0
LINE
  8
0
 10
31.5067
 20
29.4115
 11
31.0885
 21
29.1984
  0
LINE
  8
0
 10
31.0885
 20
29.1984
 11
30.625
 21
29.125
  0
LINE
  8
0
 10
30.625
 20
29.125
 11
30.1615
 21
29.1984
  0
LINE
  8
0
 10
9
 20
24.625
 11
9
 21
28.625
  0
LINE
  8
0
 10
9
 20
28.625
 11
13
 21
28.625
  0
LINE
  8
0
 10
13
 20
28.625
 11
13
 21
24.625
  0
LINE
  8
0
 10
13
 20
24.625
 11
9
 21
24.625
  0
LINE
  8
0
 10
24.625
 20
24.625
 11
24.625
 21
28.625
  0
LINE
  8
0
 10
24.625
 20
28.625
 11
28.625
 21
28.625
  0
LINE
  8
0
 10
28.625
 20
28.625
 11
28.625
 21
24.625
  0
LINE
  8
0
 10
28.625
 20
24.625
 11
24.625
 21
24.625
  0
LINE
  8
0
 10
15.8125
 20
15.8125
 11
15.8125
 21
21.8125
  0
LINE
  8
0
 10
15.8125
 20
21.8125
 11
21.8125
 21
21.8125
  0
LINE
  8
0
 10
21.8125
 20
21.8125
 11
21.8125
 21
15.8125
  0
LINE
  8
0
 10
21.8125
 20
15.8125
 11
15.8125
 21
15.8125
  0
LINE
  8
0
 10
24.625
 20
9
 11
24.625
 21
13
  0
LINE
  8
0
 10
24.625
 20
13
 11
28.625
 21
13
  0
LINE
  8
0
 10
28.625
 20
13
 11
28.625
 21
9
  0
LINE
  8
0
 10
28.625
 20
9
 11
24.625
 21
9
  0
LINE
  8
0
 10
9
 20
9
 11
9
 21
13
  0
LINE
  8
0
 10
9
 20
13
 11
13
 21
13
  0
LINE
  8
0
 10
13
 20
13
 11
13
 21
9
  0
LINE
  8
0
 10
13
 20
9
 11
9
 21
9
  0
LINE
  8
0
 10
6.53647
 20
5.57341
 11
6.11832
 21
5.78647
  0
LINE
  8
0
 10
6.11832
 20
5.78647
 11
5.78647
 21
6.11832
  0
LINE
  8
0
 10
5.78647
 20
6.11832
 11
5.57341
 21
6.53647
  0
LINE
  8
0
 10
5.57341
 20
6.53647
 11
5.5
 21
7
  0
LINE
  8
0
 10
5.5
 20
7
 11
5.57341
 21
7.46352
  0
LINE
  8
0
 10
5.57341
 20
7.46352
 11
5.78647
 21
7.88167
  0
LINE
  8
0
 10
5.78647
 20
7.88167
 11
6.11832
 21
8.21352
  0
LINE
  8
0
 10
6.11832
 20
8.21352
 11
6.53647
 21
8.42657
  0
LINE
  8
0
 10
6.53647
 20
8.42657
 11
7
 21
8.5
  0
LINE
  8
0
 10
7
 20
8.5
 11
7.46352
 21
8.42657
  0
LINE
  8
0
 10
7.46352
 20
8.42657
 11
7.88167
 21
8.21352
  0
LINE
  8
0
 10
7.88167
 20
8.21352
 11
8.21352
 21
7.88167
  0
LINE
  8
0
 10
8.21352
 20
7.88167
 11
8.42657
 21
7.46352
  0
LINE
  8
0
 10
8.42657
 20
7.46352
 11
8.5
 21
7
  0
LINE
  8
0
 10
8.5
 20
7
 11
8.42657
 21
6.53647
  0
LINE
  8
0
 10
8.42657
 20
6.53647
 11
8.21352
 21
6.11832
  0
LINE
  8
0
 10
8.21352
 20
6.11832
 11
7.88167
 21
5.78647
  0
LINE
  8
0
 10
7.88167
 20
5.78647
 11
7.46352
 21
5.57341
  0
LINE
  8
0
 10
7.46352
 20
5.57341
 11
7
 21
5.5
  0
LINE
  8
0
 10
7
 20
5.5
 11
6.53647
 21
5.57341
  0
LINE
  8
0
 10
30.1615
 20
5.57341
 11
29.7433
 21
5.78647
  0
LINE
  8
0
 10
29.7433
 20
5.78647
 11
29.4115
 21
6.11832
  0
LINE
  8
0
 10
29.4115
 20
6.11832
 11
29.1984
 21
6.53647
  0
LINE
  8
0
 10
29.1984
 20
6.53647
 11
29.125
 21
7
  0
LINE
  8
0
 10
29.125
 20
7
 11
29.1984
 21
7.46352
  0
LINE
  8
0
 10
29.1984
 20
7.46352
 11
29.4115
 21
7.88167
  0
LINE
  8
0
 10
29.4115
 20
7.88167
 11
29.7433
 21
8.21352
  0
LINE
  8
0
 10
29.7433
 20
8.21352
 11
30.1615
 21
8.42657
  0
LINE
  8
0
 10
30.1615
 20
8.42657
 11
30.625
 21
8.5
  0
LINE
  8
0
 10
30.625
 20
8.5
 11
31.0885
 21
8.42657
  0
LINE
  8
0
 10
31.0885
 20
8.42657
 11
31.5067
 21
8.21352
  0
LINE
  8
0
 10
31.5067
 20
8.21352
 11
31.8385
 21
7.88167
  0
LINE
  8
0
 10
31.8385
 20
7.88167
 11
32.0516
 21
7.46352
  0
LINE
  8
0
 10
32.0516
 20
7.46352
 11
32.125
 21
7
  0
LINE
  8
0
 10
32.125
 20
7
 11
32.0516
 21
6.53647
  0
LINE
  8
0
 10
32.0516
 20
6.53647
 11
31.8385
 21
6.11832
  0
LINE
  8
0
 10
31.8385
 20
6.11832
 11
31.5067
 21
5.78647
  0
LINE
  8
0
 10
31.5067
 20
5.78647
 11
31.0885
 21
5.57341
  0
LINE
  8
0
 10
31.0885
 20
5.57341
 11
30.625
 21
5.5
  0
LINE
  8
0
 10
30.625
 20
5.5
 11
30.1615
 21
5.57341
  0
LINE
  8
0
 10
-38.625
 20
-11
 11
-34.625
 21
-11
  0
LINE
  8
0
 10
-34.625
 20
-11
 11
-34.625
 21
-16
  0
LINE
  8
0
 10
-34.625
 20
-16
 11
-23
 21
-16
  0
LINE
  8
0
 10
-23
 20
-16
 11
-23
 21
-11
  0
LINE
  8
0
 10
-23
 20
-11
 11
-19
 21
-11
  0
LINE
  8
0
 10
-19
 20
-11
 11
-19
 21
-16
  0
LINE
  8
0
 10
-19
 20
-16
 11
-14
 21
-16
  0
LINE
  8
0
 10
-14
 20
-16
 11
-14
 21
-13
  0
LINE
  8
0
 10
-14
 20
-13
 11
-10
 21
-13
  0
LINE
  8
0
 10
-10
 20
-13
 11
-10
 21
-9
  0
LINE
  8
0
 10
-10
 20
-9
 11
-14
 21
-9
  0
LINE
  8
0
 10
-14
 20
-9
 11
-14
 21
-6
  0
LINE
  8
0
 10
-14
 20
-6
 11
-43.625
 21
-6
  0
LINE
  8
0
 10
-43.625
 20
-6
 11
-43.625
 21
-9
  0
LINE
  8
0
 10
-43.625
 20
-9
 11
-47.625
 21
-9
  0
LINE
  8
0
 10
-47.625
 20
-9
 11
-47.625
 21
-13
  0
LINE
  8
0
 10
-47.625
 20
-13
 11
-43.625
 21
-13
  0
LINE
  8
0
 10
-43.625
 20
-13
 11
-43.625
 21
-16
  0
LINE
  8
0
 10
-43.625
 20
-16
 11
-38.625
 21
-16
  0
LINE
  8
0
 10
-38.625
 20
-16
 11
-38.625
 21
-11
  0
LINE
  8
0
 10
37.625
 20
-35.6
 11
33.625
 21
-35.6
  0
LINE
  8
0
 10
33.625
 20
-35.6
 11
33.625
 21
-29.2
  0
LINE
  8
0
 10
33.625
 20
-29.2
 11
37.625
 21
-29.2
  0
LINE
  8
0
 10
37.625
 20
-29.2
 11
37.625
 21
-22.8
  0
LINE
  8
0
 10
37.625
 20
-22.8
 11
33.625
 21
-22.8
  0
LINE
  8
0
 10
33.625
 20
-22.8
 11
33.625
 21
-16.4
  0
LINE
  8
0
 10
33.625
 20
-16.4
 11
37.625
 21
-16.4
  0
LINE
  8
0
 10
37.625
 20
-16.4
 11
37.625
 21
-11
  0
LINE
  8
0
 10
37.625
 20
-11
 11
0
 21
-11
  0
LINE
  8
0
 10
0
 20
-11
 11
0
 21
-16.4
  0
LINE
  8
0
 10
0
 20
-16.4
 11
4
 21
-16.4
  0
LINE
  8
0
 10
4
 20
-16.4
 11
4
 21
-22.8
  0
LINE
  8
0
 10
4
 20
-22.8
 11
0
 21
-22.8
  0
LINE
  8
0
 10
0
 20
-22.8
 11
0
 21
-29.2
  0
LINE
  8
0
 10
0
 20
-29.2
 11
4
 21
-29.2
  0
LINE
  8
0
 10
4
 20
-29.2
 11
4
 21
-35.6
  0
LINE
  8
0
 10
4
 20
-35.6
 11
0
 21
-35.6
  0
LINE
  8
0
 10
0
 20
-35.6
 11
0
 21
-38
  0
LINE
  8
0
 10
0
 20
-38
 11
37.625
 21
-38
  0
LINE
  8
0
 10
37.625
 20
-38
 11
37.625
 21
-35.6
  0
LINE
  8
0
 10
24.625
 20
-21
 11
24.625
 21
-17
  0
LINE
  8
0
 10
24.625
 20
-17
 11
28.625
 21
-17
  0
LINE
  8
0
 10
28.625
 20
-17
 11
28.625
 21
-21
  0
LINE
  8
0
 10
28.625
 20
-21
 11
24.625
 21
-21
  0
LINE
  8
0
 10
9
 20
-21
 11
9
 21
-17
  0
LINE
  8
0
 10
9
 20
-17
 11
13
 21
-17
  0
LINE
  8
0
 10
13
 20
-17
 11
13
 21
-21
  0
LINE
  8
0
 10
13
 20
-21
 11
9
 21
-21
  0
LINE
  8
0
 10
7.52499
 20
-28
 11
7.52499
 21
-24
  0
LINE
  8
0
 10
7.52499
 20
-24
 11
15.05
 21
-24
  0
LINE
  8
0
 10
15.05
 20
-24
 11
15.05
 21
-28
  0
LINE
  8
0
 10
15.05
 20
-28
 11
7.52499
 21
-28
  0
LINE
  8
0
 10
22.575
 20
-28
 11
22.575
 21
-24
  0
LINE
  8
0
 10
22.575
 20
-24
 11
30.1
 21
-24
  0
LINE
  8
0
 10
30.1
 20
-24
 11
30.1
 21
-28
  0
LINE
  8
0
 10
30.1
 20
-28
 11
22.575
 21
-28
  0
LINE
  8
0
 10
-34.625
 20
-36
 11
-23
 21
-36
  0
LINE
  8
0
 10
-23
 20
-36
 11
-23
 21
-40
  0
LINE
  8
0
 10
-23
 20
-40
 11
-19
 21
-40
  0
LINE
  8
0
 10
-19
 20
-40
 11
-19
 21
-36
  0
LINE
  8
0
 10
-19
 20
-36
 11
-14
 21
-36
  0
LINE
  8
0
 10
-14
 20
-36
 11
-14
 21
-33
  0
LINE
  8
0
 10
-14
 20
-33
 11
-10
 21
-33
  0
LINE
  8
0
 10
-10
 20
-33
 11
-10
 21
-29
  0
LINE
  8
0
 10
-10
 20
-29
 11
-14
 21
-29
  0
LINE
  8
0
 10
-14
 20
-29
 11
-14
 21
-26
  0
LINE
  8
0
 10
-14
 20
-26
 11
-19
 21
-26
  0
LINE
  8
0
 10
-19
 20
-26
 11
-19
 21
-31
  0
LINE
  8
0
 10
-19
 20
-31
 11
-23
 21
-31
  0
LINE
  8
0
 10
-23
 20
-31
 11
-23
 21
-26
  0
LINE
  8
0
 10
-23
 20
-26
 11
-34.625
 21
-26
  0
LINE
  8
0
 10
-34.625
 20
-26
 11
-34.625
 21
-31
  0
LINE
  8
0
 10
-34.625
 20
-31
 11
-38.625
 21
-31
  0
LINE
  8
0
 10
-38.625
 20
-31
 11
-38.625
 21
-26
  0
LINE
  8
0
 10
-38.625
 20
-26
 11
-43.625
 21
-26
  0
LINE
  8
0
 10
-43.625
 20
-26
 11
-43.625
 21
-29
  0
LINE
  8
0
 10
-43.625
 20
-29
 11
-47.625
 21
-29
  0
LINE
  8
0
 10
-47.625
 20
-29
 11
-47.625
 21
-33
  0
LINE
  8
0
 10
-47.625
 20
-33
 11
-43.625
 21
-33
  0
LINE
  8
0
 10
-43.625
 20
-33
 11
-43.625
 21
-36
  0
LINE
  8
0
 10
-43.625
 20
-36
 11
-38.625
 21
-36
  0
LINE
  8
0
 10
-38.625
 20
-36
 11
-38.625
 21
-40
  0
LINE
  8
0
 10
-38.625
 20
-40
 11
-34.625
 21
-40
  0
LINE
  8
0
 10
-34.625
 20
-40
 11
-34.625
 21
-36
  0
LINE
  8
0
 10
-38.625
 20
-51
 11
-34.625
 21
-51
  0
LINE
  8
0
 10
-34.625
 20
-51
 11
-34.625
 21
-56
  0
LINE
  8
0
 10
-34.625
 20
-56
 11
-23
 21
-56
  0
LINE
  8
0
 10
-23
 20
-56
 11
-23
 21
-51
  0
LINE
  8
0
 10
-23
 20
-51
 11
-19
 21
-51
  0
LINE
  8
0
 10
-19
 20
-51
 11
-19
 21
-56
  0
LINE
  8
0
 10
-19
 20
-56
 11
-14
 21
-56
  0
LINE
  8
0
 10
-14
 20
-56
 11
-14
 21
-53
  0
LINE
  8
0
 10
-14
 20
-53
 11
-10
 21
-53
  0
LINE
  8
0
 10
-10
 20
-53
 11
-10
 21
-49
  0
LINE
  8
0
 10
-10
 20
-49
 11
-14
 21
-49
  0
LINE
  8
0
 10
-14
 20
-49
 11
-14
 21
-46
  0
LINE
  8
0
 10
-14
 20
-46
 11
-43.625
 21
-46
  0
LINE
  8
0
 10
-43.625
 20
-46
 11
-43.625
 21
-49
  0
LINE
  8
0
 10
-43.625
 20
-49
 11
-47.625
 21
-49
  0
LINE
  8
0
 10
-47.625
 20
-49
 11
-47.625
 21
-53
  0
LINE
  8
0
 10
-47.625
 20
-53
 11
-43.625
 21
-53
  0
LINE
  8
0
 10
-43.625
 20
-53
 11
-43.625
 21
-56
  0
LINE
  8
0
 10
-43.625
 20
-56
 11
-38.625
 21
-56
  0
LINE
  8
0
 10
-38.625
 20
-56
 11
-38.625
 21
-51
  0
LINE
  8
0
 10
33.625
 20
-77.6
 11
37.625
 21
-77.6
  0
LINE
  8
0
 10
37.625
 20
-77.6
 11
37.625
 21
-71.2
  0
LINE
  8
0
 10
37.625
 20
-71.2
 11
33.625
 21
-71.2
  0
LINE
  8
0
 10
33.625
 20
-71.2
 11
33.625
 21
-64.8
  0
LINE
  8
0
 10
33.625
 20
-64.8
 11
37.625
 21
-64.8
  0
LINE
  8
0
 10
37.625
 20
-64.8
 11
37.625
 21
-58.4
  0
LINE
  8
0
 10
37.625
 20
-58.4
 11
33.625
 21
-58.4
  0
LINE
  8
0
 10
33.625
 20
-58.4
 11
33.625
 21
-53
  0
LINE
  8
0
 10
33.625
 20
-53
 11
4
 21
-53
  0
LINE
  8
0
 10
4
 20
-53
 11
4
 21
-58.4
  0
LINE
  8
0
 10
4
 20
-58.4
 11
0
 21
-58.4
  0
LINE
  8
0
 10
0
 20
-58.4
 11
0
 21
-64.8
  0
LINE
  8
0
 10
0
 20
-64.8
 11
4
 21
-64.8
  0
LINE
  8
0
 10
4
 20
-64.8
 11
4
 21
-71.2
  0
LINE
  8
0
 10
4
 20
-71.2
 11
0
 21
-71.2
  0
LINE
  8
0
 10
0
 20
-71.2
 11
0
 21
-77.6
  0
LINE
  8
0
 10
0
 20
-77.6
 11
4
 21
-77.6
  0
LINE
  8
0
 10
4
 20
-77.6
 11
4
 21
-80
  0
LINE
  8
0
 10
4
 20
-80
 11
33.625
 21
-80
  0
LINE
  8
0
 10
33.625
 20
-80
 11
33.625
 21
-77.6
  0
LINE
  8
0
 10
9
 20
-63
 11
9
 21
-59
  0
LINE
  8
0
 10
9
 20
-59
 11
13
 21
-59
  0
LINE
  8
0
 10
13
 20
-59
 11
13
 21
-63
  0
LINE
  8
0
 10
13
 20
-63
 11
9
 21
-63
  0
LINE
  8
0
 10
24.625
 20
-63
 11
24.625
 21
-59
  0
LINE
  8
0
 10
24.625
 20
-59
 11
28.625
 21
-59
  0
LINE
  8
0
 10
28.625
 20
-59
 11
28.625
 21
-63
  0
LINE
  8
0
 10
28.625
 20
-63
 11
24.625
 21
-63
  0
LINE
  8
0
 10
7.52499
 20
-70
 11
7.52499
 21
-66
  0
LINE
  8
0
 10
7.52499
 20
-66
 11
15.05
 21
-66
  0
LINE
  8
0
 10
15.05
 20
-66
 11
15.05
 21
-70
  0
LINE
  8
0
 10
15.05
 20
-70
 11
7.52499
 21
-70
  0
LINE
  8
0
 10
22.575
 20
-70
 11
22.575
 21
-66
  0
LINE
  8
0
 10
22.575
 20
-66
 11
30.1
 21
-66
  0
LINE
  8
0
 10
30.1
 20
-66
 11
30.1
 21
-70
  0
LINE
  8
0
 10
30.1
 20
-70
 11
22.575
 21
-70
  0
LINE
  8
0
 10
-34.625
 20
-76
 11
-23
 21
-76
  0
LINE
  8
0
 10
-23
 20
-76
 11
-23
 21
-80
  0
LINE
  8
0
 10
-23
 20
-80
 11
-19
 21
-80
  0
LINE
  8
0
 10
-19
 20
-80
 11
-19
 21
-76
  0
LINE
  8
0
 10
-19
 20
-76
 11
-14
 21
-76
  0
LINE
  8
0
 10
-14
 20
-76
 11
-14
 21
-73
  0
LINE
  8
0
 10
-14
 20
-73
 11
-10
 21
-73
  0
LINE
  8
0
 10
-10
 20
-73
 11
-10
 21
-69
  0
LINE
  8
0
 10
-10
 20
-69
 11
-14
 21
-69
  0
LINE
  8
0
 10
-14
 20
-69
 11
-14
 21
-66
  0
LINE
  8
0
 10
-14
 20
-66
 11
-19
 21
-66
  0
LINE
  8
0
 10
-19
 20
-66
 11
-19
 21
-71
  0
LINE
  8
0
 10
-19
 20
-71
 11
-23
 21
-71
  0
LINE
  8
0
 10
-23
 20
-71
 11
-23
 21
-66
  0
LINE
  8
0
 10
-23
 20
-66
 11
-34.625
 21
-66
  0
LINE
  8
0
 10
-34.625
 20
-66
 11
-34.625
 21
-71
  0
LINE
  8
0
 10
-34.625
 20
-71
 11
-38.625
 21
-71
  0
LINE
  8
0
 10
-38.625
 20
-71
 11
-38.625
 21
-66
  0
LINE
  8
0
 10
-38.625
 20
-66
 11
-43.625
 21
-66
  0
LINE
  8
0
 10
-43.625
 20
-66
 11
-43.625
 21
-69
  0
LINE
  8
0
 10
-43.625
 20
-69
 11
-47.625
 21
-69
  0
LINE
  8
0
 10
-47.625
 20
-69
 11
-47.625
 21
-73
  0
LINE
  8
0
 10
-47.625
 20
-73
 11
-43.625
 21
-73
  0
LINE
  8
0
 10
-43.625
 20
-73
 11
-43.625
 21
-76
  0
LINE
  8
0
 10
-43.625
 20
-76
 11
-38.625
 21
-76
  0
LINE
  8
0
 10
-38.625
 20
-76
 11
-38.625
 21
-80
  0
LINE
  8
0
 10
-38.625
 20
-80
 11
-34.625
 21
-80
  0
LINE
  8
0
 10
-34.625
 20
-80
 11
-34.625
 21
-76
  0
LINE
  8
0
 10
37.625
 20
-119.6
 11
33.625
 21
-119.6
  0
LINE
  8
0
 10
33.625
 20
-119.6
 11
33.625
 21
-113.2
  0
LINE
  8
0
 10
33.625
 20
-113.2
 11
37.625
 21
-113.2
  0
LINE
  8
0
 10
37.625
 20
-113.2
 11
37.625
 21
-106.8
  0
LINE
  8
0
 10
37.625
 20
-106.8
 11
33.625
 21
-106.8
  0
LINE
  8
0
 10
33.625
 20
-106.8
 11
33.625
 21
-100.4
  0
LINE
  8
0
 10
33.625
 20
-100.4
 11
37.625
 21
-100.4
  0
LINE
  8
0
 10
37.625
 20
-100.4
 11
37.625
 21
-95
  0
LINE
  8
0
 10
37.625
 20
-95
 11
0
 21
-95
  0
LINE
  8
0
 10
0
 20
-95
 11
0
 21
-100.4
  0
LINE
  8
0
 10
0
 20
-100.4
 11
4
 21
-100.4
  0
LINE
  8
0
 10
4
 20
-100.4
 11
4
 21
-106.8
  0
LINE
  8
0
 10
4
 20
-106.8
 11
0
 21
-106.8
  0
LINE
  8
0
 10
0
 20
-106.8
 11
0
 21
-113.2
  0
LINE
  8
0
 10
0
 20
-113.2
 11
4
 21
-113.2
  0
LINE
  8
0
 10
4
 20
-113.2
 11
4
 21
-119.6
  0
LINE
  8
0
 10
4
 20
-119.6
 11
0
 21
-119.6
  0
LINE
  8
0
 10
0
 20
-119.6
 11
0
 21
-122
  0
LINE
  8
0
 10
0
 20
-122
 11
37.625
 21
-122
  0
LINE
  8
0
 10
37.625
 20
-122
 11
37.625
 21
-119.6
  0
LINE
  8
0
 10
9
 20
-105
 11
9
 21
-101
  0
LINE
  8
0
 10
9
 20
-101
 11
13
 21
-101
  0
LINE
  8
0
 10
13
 20
-101
 11
13
 21
-105
  0
LINE
  8
0
 10
13
 20
-105
 11
9
 21
-105
  0
LINE
  8
0
 10
24.625
 20
-105
 11
24.625
 21
-101
  0
LINE
  8
0
 10
24.625
 20
-101
 11
28.625
 21
-101
  0
LINE
  8
0
 10
28.625
 20
-101
 11
28.625
 21
-105
  0
LINE
  8
0
 10
28.625
 20
-105
 11
24.625
 21
-105
  0
LINE
  8
0
 10
7.52499
 20
-112
 11
7.52499
 21
-108
  0
LINE
  8
0
 10
7.52499
 20
-108
 11
15.05
 21
-108
  0
LINE
  8
0
 10
15.05
 20
-108
 11
15.05
 21
-112
  0
LINE
  8
0
 10
15.05
 20
-112
 11
7.52499
 21
-112
  0
LINE
  8
0
 10
22.575
 20
-112
 11
22.575
 21
-108
  0
LINE
  8
0
 10
22.575
 20
-108
 11
30.1
 21
-108
  0
LINE
  8
0
 10
30.1
 20
-108
 11
30.1
 21
-112
  0
LINE
  8
0
 10
30.1
 20
-112
 11
22.575
 21
-112
  0
LINE
  8
0
 10
33.625
 20
-161.6
 11
37.625
 21
-161.6
  0
LINE
  8
0
 10
37.625
 20
-161.6
 11
37.625
 21
-155.2
  0
LINE
  8
0
 10
37.625
 20
-155.2
 11
33.625
 21
-155.2
  0
LINE
  8
0
 10
33.625
 20
-155.2
 11
33.625
 21
-148.8
  0
LINE
  8
0
 10
33.625
 20
-148.8
 11
37.625
 21
-148.8
  0
LINE
  8
0
 10
37.625
 20
-148.8
 11
37.625
 21
-142.4
  0
LINE
  8
0
 10
37.625
 20
-142.4
 11
33.625
 21
-142.4
  0
LINE
  8
0
 10
33.625
 20
-142.4
 11
33.625
 21
-137
  0
LINE
  8
0
 10
33.625
 20
-137
 11
4
 21
-137
  0
LINE
  8
0
 10
4
 20
-137
 11
4
 21
-142.4
  0
LINE
  8
0
 10
4
 20
-142.4
 11
0
 21
-142.4
  0
LINE
  8
0
 10
0
 20
-142.4
 11
0
 21
-148.8
  0
LINE
  8
0
 10
0
 20
-148.8
 11
4
 21
-148.8
  0
LINE
  8
0
 10
4
 20
-148.8
 11
4
 21
-155.2
  0
LINE
  8
0
 10
4
 20
-155.2
 11
0
 21
-155.2
  0
LINE
  8
0
 10
0
 20
-155.2
 11
0
 21
-161.6
  0
LINE
  8
0
 10
0
 20
-161.6
 11
4
 21
-161.6
  0
LINE
  8
0
 10
4
 20
-161.6
 11
4
 21
-164
  0
LINE
  8
0
 10
4
 20
-164
 11
33.625
 21
-164
  0
LINE
  8
0
 10
33.625
 20
-164
 11
33.625
 21
-161.6
  0
LINE
  8
0
 10
24.625
 20
-147
 11
24.625
 21
-143
  0
LINE
  8
0
 10
24.625
 20
-143
 11
28.625
 21
-143
  0
LINE
  8
0
 10
28.625
 20
-143
 11
28.625
 21
-147
  0
LINE
  8
0
 10
28.625
 20
-147
 11
24.625
 21
-147
  0
LINE
  8
0
 10
9
 20
-147
 11
9
 21
-143
  0
LINE
  8
0
 10
9
 20
-143
 11
13
 21
-143
  0
LINE
  8
0
 10
13
 20
-143
 11
13
 21
-147
  0
LINE
  8
0
 10
13
 20
-147
 11
9
 21
-147
  0
LINE
  8
0
 10
22.575
 20
-154
 11
22.575
 21
-150
  0
LINE
  8
0
 10
22.575
 20
-150
 11
30.1
 21
-150
  0
LINE
  8
0
 10
30.1
 20
-150
 11
30.1
 21
-154
  0
LINE
  8
0
 10
30.1
 20
-154
 11
22.575
 21
-154
  0
LINE
  8
0
 10
7.52499
 20
-154
 11
7.52499
 21
-150
  0
LINE
  8
0
 10
7.52499
 20
-150
 11
15.05
 21
-150
  0
LINE
  8
0
 10
15.05
 20
-150
 11
15.05
 21
-154
  0
LINE
  8
0
 10
15.05
 20
-154
 11
7.52499
 21
-154
  0
ENDSEC
  0
SECTION
  2
OBJECTS
  0
DICTIONARY
  0
ENDSEC
  0
EOF
